<svg xmlns="http://www.w3.org/2000/svg" version="1.1" xmlns:xlink="http://www.w3.org/1999/xlink" xmlns:svgjs="http://svgjs.com/svgjs" width="1920" height="1080" preserveAspectRatio="none" viewBox="0 0 1920 1080"><g mask="url(&quot;#SvgjsMask2605&quot;)" fill="none"><rect width="1920" height="1080" x="0" y="0" fill="url(#SvgjsLinearGradient2606)"></rect><path d="M1984 1080L0 1080 L0 817.52Q80.18 737.7, 160 817.88Q240.71 802.59, 256 883.29Q309.42 840.71, 352 894.13Q376.85 822.98, 448 847.83Q543.31 783.14, 608 878.46Q679.06 789.52, 768 860.58Q864.42 797, 928 893.43Q936.92 806.35, 1024 815.26Q1077.17 772.43, 1120 825.61Q1211.99 757.61, 1280 849.6Q1340.42 750.02, 1440 810.44Q1516.33 790.77, 1536 867.09Q1602.46 837.55, 1632 904.01Q1688.48 800.49, 1792 856.97Q1832.88 801.85, 1888 842.72Q1923.64 782.36, 1984 818z" fill="rgba(160, 160, 160, 1)"></path><path d="M1984 1080L0 1080 L0 903.33Q91.4 834.74, 160 926.14Q185.71 855.85, 256 881.55Q364.29 829.84, 416 938.13Q469.87 896, 512 949.87Q537.87 879.74, 608 905.6Q669.47 871.07, 704 932.53Q760.62 829.14, 864 885.76Q920.45 846.21, 960 902.66Q1073.66 856.32, 1120 969.97Q1146 899.97, 1216 925.96Q1310.7 860.66, 1376 955.36Q1435.5 854.86, 1536 914.36Q1611.62 893.98, 1632 969.59Q1690.55 868.14, 1792 926.7Q1822.28 860.98, 1888 891.26Q1943.07 850.33, 1984 905.39z" fill="rgba(118, 118, 118, 1)"></path><path d="M2048 1080L0 1080 L0 1004.32Q59.22 967.54, 96 1026.76Q148.16 918.92, 256 971.09Q294.54 913.63, 352 952.17Q453.25 893.42, 512 994.67Q605.69 928.36, 672 1022.05Q727.73 981.78, 768 1037.52Q803 912.51, 928 947.51Q983.28 906.79, 1024 962.07Q1113.03 891.1, 1184 980.13Q1239.68 939.82, 1280 995.5Q1376 931.5, 1440 1027.5Q1458.42 949.92, 1536 968.35Q1592.18 928.53, 1632 984.7Q1705.99 962.69, 1728 1036.68Q1801.21 949.89, 1888 1023.1Q1957.45 932.56, 2048 1002.01z" fill="rgba(98, 98, 98, 1)"></path><path d="M2016 1080L0 1080 L0 1026.51Q55.27 985.78, 96 1041.06Q184.22 969.28, 256 1057.5Q344.08 985.58, 416 1073.65Q443.87 1005.52, 512 1033.38Q619.52 980.9, 672 1088.42Q716.03 972.45, 832 1016.49Q895.4 983.89, 928 1047.29Q965.85 989.14, 1024 1026.99Q1097.72 940.72, 1184 1014.44Q1267.39 1001.84, 1280 1085.23Q1337.68 1046.91, 1376 1104.6Q1418.33 986.92, 1536 1029.25Q1640.33 973.58, 1696 1077.9Q1757.65 979.56, 1856 1041.21Q1926.78 951.99, 2016 1022.78z" fill="rgba(80, 80, 80, 1)"></path></g><defs><mask id="SvgjsMask2605"><rect width="1920" height="1080" fill="#ffffff"></rect></mask><linearGradient x1="50%" y1="0%" x2="50%" y2="100%" gradientUnits="userSpaceOnUse" id="SvgjsLinearGradient2606"><stop stop-color="#0e2a47" offset="0"></stop><stop stop-color="rgba(250, 250, 250, 1)" offset="1"></stop></linearGradient></defs></svg>