<svg xmlns="http://www.w3.org/2000/svg" version="1.1" xmlns:xlink="http://www.w3.org/1999/xlink" xmlns:svgjs="http://svgjs.com/svgjs" width="1920" height="1080" preserveAspectRatio="none" viewBox="0 0 1920 1080"><g mask="url(&quot;#SvgjsMask1053&quot;)" fill="none"><rect width="1920" height="1080" x="0" y="0" fill="rgba(157, 158, 159, 1)"></rect><path d="M2059.49 782.47C1835.61 776.25 1595.21 479.28 1228.56 447.67 861.91 416.06 960.62 39.14 813.09-0.71" stroke="rgba(255, 255, 255, 1)" stroke-width="2"></path><path d="M2109.17 482.09C1862.69 466.82 1705.24 17.31 1243.18 6.89 781.13-3.53 597.89-163.57 377.2-164.39" stroke="rgba(255, 255, 255, 1)" stroke-width="2"></path><path d="M1970.68 711.72C1821.9 710.83 1680.86 576.72 1391.05 576.72 1101.23 576.72 1137.06 729 811.41 711.72 485.76 694.44 451.84 57.13 231.78-21.32" stroke="rgba(255, 255, 255, 1)" stroke-width="2"></path><path d="M2293.35 895.57C2104.41 856.21 2098.27 431.79 1731.28 366.37 1364.29 300.95 1347.3-57.45 1169.21-84.08" stroke="rgba(255, 255, 255, 1)" stroke-width="2"></path><path d="M2045.7 380.06C1901.52 379.11 1765.34 245.06 1484.97 245.06 1204.61 245.06 1212.19 381.8 924.25 380.06 636.31 378.32 534.25 1.98 363.52-17.5" stroke="rgba(255, 255, 255, 1)" stroke-width="2"></path></g><defs><mask id="SvgjsMask1053"><rect width="1920" height="1080" fill="#ffffff"></rect></mask></defs></svg>